<svg xmlns="http://www.w3.org/2000/svg" xmlns:xlink="http://www.w3.org/1999/xlink" width="375" height="812" viewBox="0 0 375 812"><defs><style>.a{clip-path:url(#j);}.b{fill:#0fb1bd;}.c{fill:#f8e34a;}.d{fill:#e93b6a;}.e{fill:#f4ad2d;}.f{fill:#fff;}.g{filter:url(#g);}.h{filter:url(#e);}.i{filter:url(#c);}.j{filter:url(#a);}</style><filter id="a" x="-227.011" y="-102.365" width="297.679" height="514.761" filterUnits="userSpaceOnUse"><feOffset dy="7" input="SourceAlpha"/><feGaussianBlur stdDeviation="5" result="b"/><feFlood flood-opacity="0.463"/><feComposite operator="in" in2="b"/><feComposite in="SourceGraphic"/></filter><filter id="c" x="-388.891" y="531.91" width="547.001" height="524.055" filterUnits="userSpaceOnUse"><feOffset dy="7" input="SourceAlpha"/><feGaussianBlur stdDeviation="5" result="d"/><feFlood flood-opacity="0.353"/><feComposite operator="in" in2="d"/><feComposite in="SourceGraphic"/></filter><filter id="e" x="172.987" y="647.272" width="569.268" height="605.888" filterUnits="userSpaceOnUse"><feOffset dy="7" input="SourceAlpha"/><feGaussianBlur stdDeviation="5" result="f"/><feFlood flood-opacity="0.447"/><feComposite operator="in" in2="f"/><feComposite in="SourceGraphic"/></filter><filter id="g" x="230.464" y="-296.182" width="556.73" height="500.395" filterUnits="userSpaceOnUse"><feOffset dy="7" input="SourceAlpha"/><feGaussianBlur stdDeviation="5" result="h"/><feFlood flood-opacity="0.373"/><feComposite operator="in" in2="h"/><feComposite in="SourceGraphic"/></filter><clipPath id="j"><rect width="375" height="812"/></clipPath></defs><g id="i" class="a"><rect class="f" width="375" height="812"/><g class="j" transform="matrix(1, 0, 0, 1, 0, 0)"><path class="b" d="M197.357,2.278C210.133,22.5,217.385,32.714,260.2,42.095c42.818,9.589,121.2,18.553,144.339,35.647,23.136,16.886-8.978,41.9-45.926,57.536-37.293,15.426-79.766,21.055-115.678,28.768-35.912,7.5-65.609,16.677-93.233,14.8-27.625-1.668-53.868-14.592-91.507-21.472C20.214,150.5-29.165,149.454-44.013,135.9c-15.194-13.759,4.144-40.025,2.072-66.917C-44.013,41.886-66.8,14.369-58.516-6.269s48-34.4,87.708-45.028c39.71-10.84,79.421-18.553,108.081-7.5C166.279-47.545,184.58-17.734,197.357,2.278Z" transform="translate(-11.58 -24.75) rotate(93)"/></g><g class="i" transform="matrix(1, 0, 0, 1, 0, 0)"><path class="c" d="M250.994-49.515c11.972,37.756-13.813,110.2-7.674,153.482,5.832,42.975,43.589,57.1,57.709,79.2s4.911,52.184-12.586,75.513c-17.5,23.022-43.589,38.677-69.681,51.877s-52.8,23.943-74.592,15.655c-21.794-8.595-38.677-36.222-66.3-48.5-27.627-12.586-66-9.823-88.1-24.557-21.794-14.427-27.627-46.351-38.677-84.722-10.744-38.063-26.706-82.573-13.2-111.735C-48.3,27.84-5.013,14.026,33.664-8.689,72.035-31.1,105.8-62.714,147.241-76.835,188.988-90.955,239.023-87.579,250.994-49.515Z" transform="translate(-189.17 941.84) rotate(-110)"/></g><g class="h" transform="matrix(1, 0, 0, 1, 0, 0)"><path class="d" d="M236.416,3.356c14.713,20.549,23.064,30.93,72.372,40.463C358.1,53.564,448.363,62.673,475.005,80.045c26.642,17.16-10.339,42.581-52.887,58.47-42.946,15.677-91.857,21.4-133.212,29.235C247.55,175.376,213.352,184.7,181.54,182.79c-31.812-1.695-62.033-14.829-105.377-21.82-43.741-6.991-100.605-8.05-117.7-21.82-17.5-13.982,4.772-40.674,2.386-68-2.386-27.54-28.631-55.5-19.087-76.477s55.273-34.955,101-45.759C88.49-62.1,134.22-69.942,167.225-58.715,200.627-47.275,221.7-16.981,236.416,3.356Z" transform="translate(366.98 742.74) rotate(50)"/></g><g class="g" transform="matrix(1, 0, 0, 1, 0, 0)"><path class="e" d="M197.357,2.278C210.133,22.5,217.385,32.714,260.2,42.095c42.818,9.589,121.2,18.553,144.339,35.647,23.136,16.886-8.978,41.9-45.926,57.536-37.293,15.426-79.766,21.055-115.678,28.768-35.912,7.5-65.609,16.677-93.233,14.8-27.625-1.668-53.868-14.592-91.507-21.472C20.214,150.5-29.165,149.454-44.013,135.9c-15.194-13.759,4.144-40.025,2.072-66.917C-44.013,41.886-66.8,14.369-58.516-6.269s48-34.4,87.708-45.028c39.71-10.84,79.421-18.553,108.081-7.5C166.279-47.545,184.58-17.734,197.357,2.278Z" transform="matrix(0.82, -0.57, 0.57, 0.82, 331.69, 0.91)"/></g></g></svg>